<?xml version="1.0" standalone="no"?>
<!DOCTYPE svg PUBLIC "-//W3C//DTD SVG 20010904//EN"
 "http://www.w3.org/TR/2001/REC-SVG-20010904/DTD/svg10.dtd">
<svg version="1.0" xmlns="http://www.w3.org/2000/svg"
 width="700.000000pt" height="700.000000pt" viewBox="0 0 700.000000 700.000000"
 preserveAspectRatio="xMidYMid meet">
<metadata>
Created by potrace 1.14, written by Peter Selinger 2001-2017
</metadata>
<g transform="translate(0.000000,700.000000) scale(0.100000,-0.100000)"
fill="#000000" stroke="none">
<path d="M4406 6918 c113 -333 53 -681 -160 -933 -162 -190 -373 -314 -586
-344 -274 -38 -535 25 -736 177 -181 137 -299 307 -358 517 -38 138 -47 254
-31 388 8 65 42 192 63 232 l15 30 -22 -19 c-58 -52 -170 -255 -215 -388 -57
-172 -82 -413 -56 -548 6 -30 13 -68 16 -85 30 -173 145 -393 281 -536 65 -69
187 -163 277 -214 131 -75 248 -115 411 -139 50 -8 77 -15 60 -16 -16 -1 -38
-3 -47 -5 -9 -2 -34 -6 -55 -9 -21 -3 -49 -8 -63 -11 -14 -3 -38 -8 -55 -11
-52 -9 -227 -70 -300 -105 -422 -199 -739 -588 -846 -1036 -11 -45 -22 -100
-25 -123 -3 -23 -7 -49 -9 -58 -2 -9 -4 -30 -5 -47 -1 -16 -8 14 -15 67 -46
332 -246 647 -525 823 -187 119 -408 177 -640 170 -192 -6 -373 -53 -540 -141
-81 -43 -257 -166 -215 -149 159 60 267 79 410 72 60 -3 124 -8 140 -12 59
-12 147 -36 163 -44 227 -107 304 -163 417 -301 155 -189 218 -380 211 -640
-2 -74 -7 -146 -10 -160 -3 -14 -8 -38 -12 -55 -11 -53 -82 -217 -96 -223 -5
-2 -8 -8 -8 -14 0 -5 -20 -37 -45 -71 -192 -265 -463 -409 -770 -409 -123 0
-164 6 -325 47 -8 2 -33 11 -55 20 l-40 17 19 -21 c24 -26 195 -138 256 -168
179 -86 309 -117 495 -117 142 0 212 9 340 44 414 116 699 403 804 810 6 25
17 88 24 140 l13 95 7 -60 c14 -116 18 -138 28 -184 36 -169 106 -341 201
-491 56 -89 59 -93 150 -201 232 -273 613 -473 983 -514 69 -8 84 -15 34 -16
-19 0 -41 -2 -49 -4 -8 -1 -35 -6 -60 -9 -25 -4 -83 -18 -130 -32 -218 -66
-430 -212 -570 -394 -19 -25 -38 -47 -41 -50 -7 -6 -82 -138 -96 -170 -42 -95
-70 -186 -90 -295 -11 -54 -10 -297 0 -364 13 -83 61 -242 98 -323 43 -94 139
-248 186 -298 3 -3 -6 25 -20 61 -22 59 -35 107 -52 204 -6 34 -6 207 0 245
12 80 19 110 41 178 53 161 120 270 240 388 134 132 266 210 435 256 112 30
374 32 484 4 335 -86 623 -377 701 -707 43 -181 30 -395 -36 -579 l-20 -55 26
30 c14 17 47 62 73 100 187 272 248 578 180 900 -52 245 -174 465 -346 625
-175 162 -358 242 -663 289 -38 6 -46 9 -25 11 118 8 302 48 415 91 479 184
827 570 960 1067 15 59 39 208 41 257 1 28 6 13 15 -50 31 -200 88 -356 181
-497 175 -266 449 -432 813 -494 57 -10 282 -10 335 -1 22 4 52 10 66 12 145
26 386 144 504 248 l40 36 -65 -24 c-186 -66 -390 -77 -580 -29 -68 16 -70 17
-162 58 -175 76 -361 259 -458 448 -75 149 -95 241 -93 448 0 110 5 152 26
231 43 162 121 296 250 427 84 86 137 127 228 174 146 78 266 109 434 114 151
4 253 -14 400 -72 45 -17 -136 114 -187 136 -13 6 -30 14 -38 19 -86 53 -250
105 -410 129 -85 13 -292 6 -380 -12 -336 -71 -605 -274 -779 -589 -61 -111
-111 -274 -127 -412 -7 -67 -14 -84 -15 -39 0 16 -2 36 -3 44 -2 8 -6 38 -10
65 -14 119 -83 330 -150 463 -14 27 -56 96 -95 153 -253 379 -670 630 -1116
674 -80 8 -96 15 -39 16 71 1 281 44 299 60 5 5 15 9 23 9 8 0 48 16 89 35
165 77 301 187 409 330 55 74 154 255 154 284 0 9 4 21 9 26 8 9 49 154 56
199 2 12 7 39 10 61 4 22 8 85 10 141 2 87 -3 143 -28 274 -11 60 -62 192
-106 277 -41 76 -154 243 -166 243 -2 0 7 -32 21 -72z"/>
</g>
</svg>
